# xmcd CD database file
#
# Track frame offsets:
#	150
#	23047
#	52797
#
# Disc length: 1009 seconds
#
# Revision: 0
# Processed by: cddbd v1.5.1PL0 Copyright (c) Steve Scherf et al.
# Submitted via: CDex 1.51
#
DISCID=1603ef03
DTITLE=葛谷 葉子 - replay on 〜過ぎてゆく時のなかで､満ちてゆく光の粒で〜
DYEAR=2000
DGENRE=Pop
TTITLE0=replay on 〜過ぎてゆく時のなかで､満ちてゆく光の粒で〜
TTITLE1=サイドシート (REMIX)
TTITLE2=replay on 〜過ぎてゆく時のなかで､満ちてゆく光の粒で〜 (less vocal)
EXTD=YEAR: 00/12/06
EXTT0=
EXTT1=
EXTT2=
PLAYORDER=
